<svg width="800" height="800" viewBox="0 0 800 800" fill="none" xmlns="http://www.w3.org/2000/svg">
<path d="M477.694 531.34L522.027 487.003C528.851 480.1 536.974 474.613 545.927 470.873C554.884 467.133 564.491 465.21 574.194 465.21C583.901 465.21 593.507 467.133 602.464 470.873C611.417 474.613 619.541 480.1 626.361 487.003L678.36 539.006C685.264 545.826 690.747 553.943 694.487 562.9C698.227 571.853 700.154 581.466 700.154 591.17C700.154 600.876 698.227 610.486 694.487 619.443C690.747 628.396 685.264 636.513 678.36 643.333L654.694 667.333C638.387 683.8 617.297 694.7 594.431 698.47C571.564 702.24 548.091 698.696 527.361 688.336C348.971 596.506 203.67 451.32 111.695 273.006C101.326 252.253 97.8052 228.747 101.639 205.867C105.472 182.987 116.462 161.91 133.029 145.67L156.694 121.671C170.559 107.891 189.313 100.154 208.861 100.154C228.409 100.154 247.163 107.891 261.028 121.671L313.361 174.007C327.142 187.871 334.877 206.623 334.877 226.172C334.877 245.72 327.142 264.472 313.361 278.336L269.027 322.672C298.341 362.323 330.54 399.753 365.361 434.666C399.981 469.346 437.201 501.333 476.694 530.34L477.694 531.34Z" stroke="white" stroke-width="50" stroke-linecap="round" stroke-linejoin="round"/>
<path d="M607.029 294.67C601.926 269.893 589.769 247.121 572.029 229.086C554.293 211.05 531.719 198.517 507.029 193.002" stroke="white" stroke-width="50" stroke-linecap="round" stroke-linejoin="round"/>
<path d="M733.333 250.333C720.943 206.641 697.6 166.842 665.517 134.7C633.433 102.557 593.67 79.1353 550 66.666" stroke="white" stroke-width="50" stroke-linecap="round" stroke-linejoin="round"/>
</svg>
